HIERARCHY
ROOT Hips
{
	OFFSET -3.958830 18.904000 13.208200
	CHANNELS 6 Xposition Yposition Zposition Zrotation Yrotation Xrotation 
	JOINT LHipJoint
	{
		OFFSET 0.000000 0.000000 0.000000
		CHANNELS 3 Zrotation Yrotation Xrotation
		JOINT LeftUpLeg
		{
			OFFSET 1.800000 -1.400000 0.085000
			CHANNELS 3 Zrotation Yrotation Xrotation
			JOINT LeftLeg
			{
				OFFSET 2.215000 -6.000000 0.000000
				CHANNELS 3 Zrotation Yrotation Xrotation
				JOINT LeftFoot
				{
					OFFSET 2.500000 -6.900000 0.000000
					CHANNELS 3 Zrotation Yrotation Xrotation
					JOINT LeftToeBase
					{
						OFFSET 0.200000 -0.500000 1.950000
						CHANNELS 3 Zrotation Yrotation Xrotation
						End Site
						{
							OFFSET 0.000000 0.000000 0.000000
						}
					}
				}
			}
		}
	}
	JOINT RHipJoint
	{
		OFFSET 0.000000 0.000000 0.000000
		CHANNELS 3 Zrotation Yrotation Xrotation
		JOINT RightUpLeg
		{
			OFFSET -1.800000 -1.400000 0.085000
			CHANNELS 3 Zrotation Yrotation Xrotation
			JOINT RightLeg
			{
				OFFSET -2.215000 -6.000000 0.000000
				CHANNELS 3 Zrotation Yrotation Xrotation
				JOINT RightFoot
				{
					OFFSET -2.500000 -6.900000 0.000000
					CHANNELS 3 Zrotation Yrotation Xrotation
					JOINT RightToeBase
					{
						OFFSET -0.200000 -0.500000 1.950000
						CHANNELS 3 Zrotation Yrotation Xrotation
						End Site
						{
							OFFSET 0.000000 0.000000 0.000000
						}
					}
				}
			}
		}
	}
	JOINT LowerBack
	{
		OFFSET 0.000000 0.000000 0.000000
		CHANNELS 3 Zrotation Yrotation Xrotation
		JOINT Spine
		{
			OFFSET -0.087000 1.940000 -0.288900
			CHANNELS 3 Zrotation Yrotation Xrotation
			JOINT Spine1
			{
				OFFSET 0.000000 1.950000 0.060000
				CHANNELS 3 Zrotation Yrotation Xrotation
				JOINT Neck
				{
					OFFSET 0.000000 0.000000 0.000000
					CHANNELS 3 Zrotation Yrotation Xrotation
					JOINT Neck1
					{
						OFFSET 0.000000 1.600000 0.340000
						CHANNELS 3 Zrotation Yrotation Xrotation
						JOINT Head
						{
							OFFSET 0.000000 1.667000 -0.240000
							CHANNELS 3 Zrotation Yrotation Xrotation
							End Site
							{
								OFFSET 0.000000 0.000000 0.000000
							}
						}
					}
				}
				JOINT LeftShoulder
				{
					OFFSET 0.000000 0.000000 0.000000
					CHANNELS 3 Zrotation Yrotation Xrotation
					JOINT LeftArm
					{
						OFFSET 2.700000 1.550000 -0.730000
						CHANNELS 3 Zrotation Yrotation Xrotation
						JOINT LeftForeArm
						{
							OFFSET 5.450000 0.000000 0.000000
							CHANNELS 3 Zrotation Yrotation Xrotation
							JOINT LeftHand
							{
								OFFSET 3.450000 0.000000 0.000000
								CHANNELS 3 Zrotation Yrotation Xrotation
								JOINT LeftHandIndex1
								{
									OFFSET 0.750000 0.000000 0.000000
									CHANNELS 3 Zrotation Yrotation Xrotation
									End Site
									{
										OFFSET 0.000000 0.000000 0.000000
									}
								}
							}
						}
					}
				}
				JOINT RightShoulder
				{
					OFFSET 0.000000 0.000000 0.000000
					CHANNELS 3 Zrotation Yrotation Xrotation
					JOINT RightArm
					{
						OFFSET -2.700000 1.550000 -0.730000
						CHANNELS 3 Zrotation Yrotation Xrotation
						JOINT RightForeArm
						{
							OFFSET -5.450000 0.000000 0.000000
							CHANNELS 3 Zrotation Yrotation Xrotation
							JOINT RightHand
							{
								OFFSET -3.450000 0.000000 0.000000
								CHANNELS 3 Zrotation Yrotation Xrotation
								JOINT RightHandIndex1
								{
									OFFSET -0.750000 0.000000 0.000000
									CHANNELS 3 Zrotation Yrotation Xrotation
									End Site
									{
										OFFSET 0.000000 0.000000 0.000000
									}
								}
							}
						}
					}
				}
			}
		}
	}
}
MOTION
Frames: 8
Frame Time: 0.016667
-0.697550 16.899210 -2.987350 -3.076587 -31.077078 -1.079952 -14.681029 13.518949 2.836064 11.148341 0.021156 -2.058713 -7.033857 5.841460 7.130296 -1.135283 5.216075 2.969185 -0.305070 -0.215190 -0.767440 18.633790 -11.218029 2.592937 -8.325353 -0.116501 -12.918695 -1.704288 -2.722121 5.673939 0.394533 -3.208982 3.659347 0.452110 1.088820 -0.442610 -4.756281 -1.687564 -6.953507 11.758635 -6.305403 14.733155 -11.064594 -4.270010 -2.013658 -5.937722 -9.016606 -7.828369 -18.362782 15.341007 21.339372 5.913500 5.132160 -3.992130 13.019327 -2.056781 3.439779 31.751305 -7.035534 -3.320520 78.468610 14.905651 10.013733 -4.833954 2.550159 0.167880 0.623550 -0.889210 0.087620 -1.562553 3.247337 -1.450213 -40.663271 -15.946625 1.838674 -80.603621 -2.577632 4.967693 2.212517 -1.508005 -0.982030 1.033960 0.769040 -0.167940 
-0.726850 16.897500 -2.992320 -2.715774 -30.694797 -1.706561 -14.645601 13.534250 2.835613 10.936517 0.071764 -1.652002 -6.636415 5.796109 7.371779 -1.134356 5.196008 2.976558 -0.312130 -0.219500 -0.795540 18.644769 -11.314668 2.621207 -8.506131 -0.247005 -12.397582 -1.540114 -2.820982 5.848494 0.381518 -3.268109 3.640587 0.448260 1.101540 -0.442820 -4.793375 -1.551789 -7.007821 11.126909 -6.255284 16.034705 -10.961289 -4.210374 -3.227044 -6.256345 -8.893814 -7.935284 -18.176477 15.201047 21.669235 7.063040 4.526720 -4.006740 13.185460 -2.363061 3.695647 31.442741 -8.082026 -3.883222 81.253631 17.514611 12.380997 -4.820088 2.557295 0.171980 0.616390 -0.891900 0.092520 -1.009661 3.213954 -1.636832 -41.494867 -16.049383 2.063180 -81.745378 -4.570711 6.759658 2.220030 -1.479786 -0.980810 1.040670 0.782360 -0.154660 
-0.777580 16.890940 -2.992010 -2.804334 -30.103987 -2.050117 -14.605481 13.524109 2.813011 11.196121 0.075414 -1.291014 -6.297449 5.795206 7.694607 -1.078036 5.145871 3.011503 -0.277950 -0.152900 -0.814850 18.669337 -11.416000 2.638085 -8.242335 -0.357777 -11.804560 -1.245319 -2.915569 6.405192 0.367910 -3.344301 3.638479 0.471580 1.107210 -0.469750 -4.866667 -1.356838 -7.022949 11.113976 -6.380089 16.906934 -10.922933 -4.016843 -3.903251 -6.693626 -8.810477 -8.135541 -18.027184 15.034564 21.895689 8.268430 3.938520 -3.097010 13.466608 -3.015634 4.127202 30.550743 -8.837975 -4.726334 86.494240 21.183578 16.681280 -4.779824 2.614203 0.127410 0.607320 -0.903370 0.136590 -0.373865 3.599770 -1.668404 -42.121931 -16.082439 1.821359 -85.233479 -9.117561 10.823033 2.242502 -1.515086 -0.954330 1.034270 0.732400 -0.117000 
-0.840410 16.886910 -2.997500 -3.140794 -29.083955 -2.669329 -14.556453 13.493774 2.777855 12.025664 0.035694 -0.811760 -6.002470 5.852272 8.193760 -0.997880 5.140166 3.021104 -0.239560 -0.081820 -0.821110 18.698194 -11.530896 2.691115 -7.789841 -0.507148 -10.641842 -0.713527 -3.076186 6.722360 0.336697 -3.486408 3.603865 0.490570 1.098010 -0.469350 -4.947316 -1.090366 -7.084742 11.141569 -6.088480 18.523919 -10.638685 -3.189628 -4.479305 -7.241775 -8.418143 -8.295542 -17.262366 13.730615 22.572377 8.586370 2.784100 -2.286610 14.853628 -3.191214 4.566606 28.832177 -12.550206 -6.401986 93.596744 25.994092 22.982583 -4.767474 2.692879 0.060940 0.606560 -0.904990 0.172290 -0.665613 3.143637 -1.937028 -41.620277 -16.539743 1.353327 -90.024548 -14.550711 16.526953 2.300080 -1.584028 -0.899390 0.997920 0.677830 -0.073810 
-0.911200 16.886940 -2.999210 -3.274017 -29.108147 -2.869901 -14.544928 13.433054 2.695266 12.426983 0.026506 -0.367318 -5.578373 5.852661 8.574866 -0.995703 5.147210 3.013891 -0.183880 0.020390 -0.817300 18.738779 -11.553144 2.656241 -7.257884 -0.559175 -10.390157 -0.198826 -3.224628 7.578499 0.323560 -3.561542 3.580630 0.555680 1.104920 -0.476630 -5.079377 -0.965675 -6.949927 11.428100 -7.163810 17.291890 -11.776596 -3.336507 -2.340432 -7.650982 -8.522847 -8.156670 -17.245886 14.672026 21.667896 9.094110 3.489730 -2.785740 14.075143 -4.912004 4.671302 29.419726 -10.708398 -7.119184 99.911061 28.499394 28.681371 -4.786519 2.737085 0.020290 0.618380 -0.907330 0.201490 0.722911 4.873428 -1.640355 -41.276692 -15.646777 -0.281076 -98.441146 -19.382392 23.726839 2.275993 -1.636262 -0.879940 1.007420 0.642470 -0.051020 
-0.975620 16.883460 -3.006420 -3.375648 -29.140763 -3.711523 -14.534825 13.410503 2.664453 13.065956 0.038340 0.529802 -5.656617 6.039500 9.150019 -0.933287 5.239052 2.984770 -0.132160 0.104860 -0.796630 18.757391 -11.586371 2.633013 -6.797595 -0.703863 -9.686820 0.713419 -3.536375 8.813862 0.284277 -3.678177 3.541040 0.590230 1.089780 -0.478700 -5.146385 -0.892367 -6.897578 11.265906 -7.878402 17.484437 -12.230681 -3.131142 -0.771107 -7.830176 -8.585154 -8.584525 -17.356882 15.165139 21.328547 9.322200 4.021020 -3.002790 14.114319 -6.920368 5.099366 29.425175 -9.635092 -8.198445 105.774609 31.428262 35.098954 -4.793792 2.787791 -0.005720 0.609430 -0.887100 0.233160 1.029836 6.852758 -1.002119 -41.707874 -15.108480 -1.475529 -103.342059 -25.431470 32.390430 2.292007 -1.663991 -0.847420 0.997550 0.589370 -0.027740 
-1.043740 16.886120 -3.014240 -3.268573 -29.425886 -4.687907 -14.550964 13.462084 2.687022 13.476155 0.062876 1.337923 -6.210429 6.404071 10.078136 -0.874441 5.423474 2.927229 -0.154150 0.086620 -0.805840 18.730777 -11.571641 2.630897 -6.556030 -0.763225 -9.066795 2.686914 -4.127372 10.556141 0.269832 -3.835116 3.490473 0.575030 1.092990 -0.495910 -5.070482 -1.013270 -6.932264 10.038411 -7.945413 18.232590 -11.628535 -2.653093 0.295277 -7.659477 -8.427060 -9.234847 -17.153619 15.366400 21.707214 9.356830 4.437280 -2.475840 14.390330 -8.723157 5.460610 29.452101 -8.821334 -9.196684 110.842957 34.584506 42.099370 -4.837217 2.798055 -0.011360 0.608920 -0.892750 0.231610 0.529432 8.772563 -0.164292 -41.729495 -14.904467 -2.539472 -108.820341 -30.521699 41.706561 2.322283 -1.646892 -0.856160 0.997880 0.586200 -0.026170 
-1.106590 16.883030 -3.015540 -3.508589 -29.348511 -4.960930 -14.564864 13.543290 2.620096 14.025010 0.067212 1.675371 -5.128895 6.346015 10.838755 -0.893332 5.483096 2.919892 -0.176340 0.057170 -0.830340 18.714126 -11.568906 2.633396 -6.145102 -0.699222 -8.833164 3.314948 -4.393689 11.670151 0.278143 -3.940668 3.456019 0.572680 1.135370 -0.489000 -5.007115 -1.114861 -6.898828 9.641374 -7.838278 18.189626 -11.378003 -1.961550 1.790329 -7.382926 -8.133310 -9.544504 -16.413574 15.179961 21.449726 9.161830 4.392860 -2.068520 14.386021 -9.985010 5.508904 28.761306 -9.084833 -10.284335 114.151783 38.945512 49.603020 -4.919272 2.839233 -0.027740 0.641290 -0.924530 0.233090 0.012234 10.121760 0.510657 -41.649997 -15.376650 -3.313846 -113.557014 -35.238701 51.006140 2.335039 -1.631014 -0.874390 1.009090 0.608900 -0.022670 
